<?xml version="1.0" encoding="UTF-8" standalone="no"?>
<svg width="88px" height="90px" viewBox="0 0 88 90" version="1.1" xmlns="http://www.w3.org/2000/svg" xmlns:xlink="http://www.w3.org/1999/xlink" xmlns:sketch="http://www.bohemiancoding.com/sketch/ns">
    <!-- Generator: Sketch 3.3.2 (12043) - http://www.bohemiancoding.com/sketch -->
    <title>Slice 1</title>
    <desc>Created with Sketch.</desc>
    <defs></defs>
    <g id="Page-1" stroke="none" stroke-width="1" fill="none" fill-rule="evenodd" sketch:type="MSPage">
        <g id="donate" sketch:type="MSLayerGroup" fill="#000000">
            <g id="Group" sketch:type="MSShapeGroup">
                <path d="M52.296,55.819 C52.725,56.106 53.219,56.25 53.714,56.25 C54.209,56.25 54.704,56.106 55.132,55.819 C56.005,55.237 76.533,41.442 84.095,27.585 C85.966,24.687 86.953,21.34 86.953,17.897 C86.953,8.027 78.924,0 69.056,0 C61.799,0 56.425,6.021 53.715,9.167 C51.004,6.021 45.631,0 38.375,0 C28.505,0 20.476,8.027 20.476,17.897 C20.476,21.339 21.465,24.686 23.334,27.585 C30.895,41.442 51.423,55.237 52.296,55.819 L52.296,55.819 Z M38.375,5.112 C43.487,5.112 47.763,10.087 50.062,12.76 C51.49,14.422 52.277,15.339 53.715,15.339 C55.153,15.339 55.94,14.422 57.37,12.76 C59.667,10.086 63.943,5.112 69.057,5.112 C76.106,5.112 81.841,10.848 81.841,17.897 C81.841,20.378 81.12,22.793 79.758,24.876 C79.72,24.935 79.683,24.996 79.65,25.058 C73.81,35.845 58.464,47.227 53.716,50.581 C48.968,47.227 33.624,35.845 27.782,25.058 C27.748,24.996 27.712,24.935 27.674,24.876 C26.312,22.793 25.591,20.379 25.591,17.897 C25.589,10.849 31.324,5.112 38.375,5.112 L38.375,5.112 Z" id="Shape"></path>
                <path d="M84.461,55.201 C79.785,52.462 75.864,56.524 74.387,58.052 C71.274,61.277 67.524,64.465 65.626,66.031 C64.82,65.67 63.931,65.465 62.995,65.456 C57.212,65.145 48.098,64.102 45.817,62.746 C43.366,61.289 41.403,59.866 39.672,58.612 C34.697,55.006 30.769,52.16 20.986,52.16 C18.15,52.16 15.664,52.946 13.259,53.708 C10.791,54.49 8.459,55.229 5.646,55.229 C2.543,55.229 0.021,57.751 0.021,60.854 L0.021,75.17 C0.021,78.273 2.543,80.795 5.646,80.795 C10.994,80.795 19.355,81.07 21.2,81.686 C24.525,82.794 32.318,87.415 35.04,89.101 C35.075,89.122 35.11,89.144 35.145,89.163 C36.13,89.71 37.247,90 38.375,90 L64.375,90 C67.127,90 70.186,87.454 71.247,85.693 C74.656,80.036 86.88,64.643 87.003,64.488 C87.113,64.348 87.208,64.198 87.287,64.04 C88.871,60.872 87.655,57.071 84.461,55.201 L84.461,55.201 Z M64.374,84.885 L38.374,84.885 C38.128,84.885 37.885,84.826 37.668,84.715 C36.707,84.12 27.247,78.311 22.817,76.835 C19.523,75.737 7.934,75.681 5.646,75.681 C5.363,75.681 5.133,75.452 5.133,75.17 L5.133,60.853 C5.133,60.569 5.363,60.34 5.646,60.34 C9.248,60.34 12.2,59.405 14.801,58.582 C17.023,57.879 18.941,57.272 20.986,57.272 C29.11,57.272 31.956,59.334 36.672,62.751 C38.491,64.069 40.554,65.563 43.202,67.14 C44.532,67.931 46.735,68.552 49.205,69.035 C54.514,70.073 61.053,70.473 62.784,70.565 C62.828,70.568 62.873,70.568 62.919,70.568 C63.764,70.568 64.453,71.256 64.453,72.103 C64.453,72.949 63.765,73.635 62.919,73.635 C62.874,73.635 62.83,73.638 62.784,73.64 L43.436,74.658 C41.895,74.602 38.259,72.027 35.844,70.319 C35.219,69.875 34.609,69.449 34.009,69.035 C32.702,68.131 31.454,67.319 30.312,66.748 C29.049,66.113 27.514,66.628 26.883,67.891 C26.252,69.154 26.763,70.69 28.026,71.322 C29.343,71.979 31.066,73.2 32.891,74.492 C36.726,77.208 40.35,79.774 43.488,79.774 C43.533,79.774 43.579,79.772 43.623,79.771 L62.996,78.75 C66.627,78.71 69.569,75.742 69.569,72.104 C69.569,71.281 69.42,70.493 69.144,69.763 C71.195,68.064 74.889,64.897 78.068,61.607 C80.246,59.351 81.115,59.167 81.88,59.615 C82.558,60.013 83.055,60.79 82.793,61.569 C81.094,63.714 70.235,77.468 66.869,83.055 C66.42,83.795 64.92,84.827 64.374,84.885 L64.374,84.885 Z" id="Shape"></path>
            </g>
        </g>
    </g>
</svg>